<svg width="60" height="30" viewBox="0 0 60 30" fill="none" xmlns="http://www.w3.org/2000/svg">
<path fill-rule="evenodd" clip-rule="evenodd" d="M0.25 15.4999C0.25 15.0606 0.473883 14.6394 0.872398 14.3287C1.27091 14.0181 1.81142 13.8436 2.375 13.8436H52.4953L39.1205 3.42252C38.7215 3.11152 38.4973 2.68971 38.4973 2.24989C38.4973 1.81007 38.7215 1.38827 39.1205 1.07727C39.5195 0.76627 40.0607 0.591553 40.625 0.591553C41.1893 0.591553 41.7305 0.76627 42.1295 1.07727L59.1295 14.3273C59.3274 14.4811 59.4844 14.6639 59.5915 14.8651C59.6987 15.0663 59.7538 15.282 59.7538 15.4999C59.7538 15.7177 59.6987 15.9335 59.5915 16.1347C59.4844 16.3359 59.3274 16.5187 59.1295 16.6725L42.1295 29.9225C41.7305 30.2335 41.1893 30.4082 40.625 30.4082C40.0607 30.4082 39.5195 30.2335 39.1205 29.9225C38.7215 29.6115 38.4973 29.1897 38.4973 28.7499C38.4973 28.3101 38.7215 27.8883 39.1205 27.5773L52.4953 17.1561H2.375C1.81142 17.1561 1.27091 16.9816 0.872398 16.671C0.473883 16.3604 0.25 15.9392 0.25 15.4999Z" fill="white"/>
</svg>
